<mxfile host="app.diagrams.net" agent="Mozilla/5.0 (Windows NT 10.0; Win64; x64; rv:134.0) Gecko/20100101 Firefox/134.0" version="25.0.3">
  <diagram name="Page-1" id="GeYVH_NYKNIjnTx37Asv">
    <mxGraphModel dx="2698" dy="1445" grid="1" gridSize="10" guides="1" tooltips="1" connect="1" arrows="1" fold="1" page="1" pageScale="1" pageWidth="850" pageHeight="1100" math="0" shadow="0">
      <root>
        <mxCell id="0" />
        <mxCell id="1" parent="0" />
        <mxCell id="eGBgpDXBILm3z7dDLEID-1" value="Utility" style="swimlane;whiteSpace=wrap;html=1;align=left;spacingLeft=10;" vertex="1" parent="1">
          <mxGeometry x="40" y="110" width="160" height="200" as="geometry" />
        </mxCell>
        <mxCell id="eGBgpDXBILm3z7dDLEID-10" value="suggestions" style="rounded=0;whiteSpace=wrap;html=1;align=left;spacingLeft=10;" vertex="1" parent="eGBgpDXBILm3z7dDLEID-1">
          <mxGeometry x="10" y="160" width="120" height="20" as="geometry" />
        </mxCell>
        <mxCell id="eGBgpDXBILm3z7dDLEID-4" value="rules" style="rounded=0;whiteSpace=wrap;html=1;align=left;spacingLeft=10;" vertex="1" parent="eGBgpDXBILm3z7dDLEID-1">
          <mxGeometry x="10" y="40" width="120" height="20" as="geometry" />
        </mxCell>
        <mxCell id="eGBgpDXBILm3z7dDLEID-5" value="automation" style="rounded=0;whiteSpace=wrap;html=1;align=left;spacingLeft=10;" vertex="1" parent="eGBgpDXBILm3z7dDLEID-1">
          <mxGeometry x="10" y="70" width="120" height="20" as="geometry" />
        </mxCell>
        <mxCell id="eGBgpDXBILm3z7dDLEID-7" value="&lt;div&gt;patch-notes&lt;/div&gt;" style="rounded=0;whiteSpace=wrap;html=1;align=left;spacingLeft=10;" vertex="1" parent="eGBgpDXBILm3z7dDLEID-1">
          <mxGeometry x="10" y="100" width="120" height="20" as="geometry" />
        </mxCell>
        <mxCell id="eGBgpDXBILm3z7dDLEID-8" value="democracy" style="rounded=0;whiteSpace=wrap;html=1;align=left;spacingLeft=10;" vertex="1" parent="eGBgpDXBILm3z7dDLEID-1">
          <mxGeometry x="10" y="130" width="120" height="20" as="geometry" />
        </mxCell>
        <mxCell id="eGBgpDXBILm3z7dDLEID-11" value="Casual" style="swimlane;whiteSpace=wrap;html=1;align=left;spacingLeft=10;" vertex="1" parent="1">
          <mxGeometry x="40" y="320" width="160" height="230" as="geometry" />
        </mxCell>
        <mxCell id="eGBgpDXBILm3z7dDLEID-12" value="quarantine-biomed" style="rounded=0;whiteSpace=wrap;html=1;align=left;spacingLeft=10;" vertex="1" parent="eGBgpDXBILm3z7dDLEID-11">
          <mxGeometry x="10" y="160" width="120" height="20" as="geometry" />
        </mxCell>
        <mxCell id="eGBgpDXBILm3z7dDLEID-13" value="chat" style="rounded=0;whiteSpace=wrap;html=1;align=left;spacingLeft=10;" vertex="1" parent="eGBgpDXBILm3z7dDLEID-11">
          <mxGeometry x="10" y="40" width="120" height="20" as="geometry" />
        </mxCell>
        <mxCell id="eGBgpDXBILm3z7dDLEID-14" value="share-internet" style="rounded=0;whiteSpace=wrap;html=1;align=left;spacingLeft=10;" vertex="1" parent="eGBgpDXBILm3z7dDLEID-11">
          <mxGeometry x="10" y="70" width="120" height="20" as="geometry" />
        </mxCell>
        <mxCell id="eGBgpDXBILm3z7dDLEID-15" value="share-bio-pics" style="rounded=0;whiteSpace=wrap;html=1;align=left;spacingLeft=10;" vertex="1" parent="eGBgpDXBILm3z7dDLEID-11">
          <mxGeometry x="10" y="100" width="120" height="20" as="geometry" />
        </mxCell>
        <mxCell id="eGBgpDXBILm3z7dDLEID-16" value="share-food" style="rounded=0;whiteSpace=wrap;html=1;align=left;spacingLeft=10;" vertex="1" parent="eGBgpDXBILm3z7dDLEID-11">
          <mxGeometry x="10" y="130" width="120" height="20" as="geometry" />
        </mxCell>
        <mxCell id="eGBgpDXBILm3z7dDLEID-17" value="quarantine-inverts" style="rounded=0;whiteSpace=wrap;html=1;align=left;spacingLeft=10;" vertex="1" parent="eGBgpDXBILm3z7dDLEID-11">
          <mxGeometry x="10" y="190" width="120" height="20" as="geometry" />
        </mxCell>
        <mxCell id="eGBgpDXBILm3z7dDLEID-18" value="in-depth" style="swimlane;whiteSpace=wrap;html=1;align=left;spacingLeft=10;" vertex="1" parent="1">
          <mxGeometry x="40" y="560" width="160" height="210" as="geometry" />
        </mxCell>
        <mxCell id="eGBgpDXBILm3z7dDLEID-19" value="recs-media" style="rounded=0;whiteSpace=wrap;html=1;align=left;spacingLeft=10;" vertex="1" parent="eGBgpDXBILm3z7dDLEID-18">
          <mxGeometry x="10" y="160" width="120" height="20" as="geometry" />
        </mxCell>
        <mxCell id="eGBgpDXBILm3z7dDLEID-20" value="convo-biomed" style="rounded=0;whiteSpace=wrap;html=1;align=left;spacingLeft=10;" vertex="1" parent="eGBgpDXBILm3z7dDLEID-18">
          <mxGeometry x="10" y="40" width="120" height="20" as="geometry" />
        </mxCell>
        <mxCell id="eGBgpDXBILm3z7dDLEID-21" value="convo-science" style="rounded=0;whiteSpace=wrap;html=1;align=left;spacingLeft=10;" vertex="1" parent="eGBgpDXBILm3z7dDLEID-18">
          <mxGeometry x="10" y="70" width="120" height="20" as="geometry" />
        </mxCell>
        <mxCell id="eGBgpDXBILm3z7dDLEID-22" value="convo-media" style="rounded=0;whiteSpace=wrap;html=1;align=left;spacingLeft=10;" vertex="1" parent="eGBgpDXBILm3z7dDLEID-18">
          <mxGeometry x="10" y="100" width="120" height="20" as="geometry" />
        </mxCell>
        <mxCell id="eGBgpDXBILm3z7dDLEID-23" value="sort-it-out" style="rounded=0;whiteSpace=wrap;html=1;align=left;spacingLeft=10;" vertex="1" parent="eGBgpDXBILm3z7dDLEID-18">
          <mxGeometry x="10" y="130" width="120" height="20" as="geometry" />
        </mxCell>
        <mxCell id="eGBgpDXBILm3z7dDLEID-25" value="Creative" style="swimlane;whiteSpace=wrap;html=1;align=left;spacingLeft=10;" vertex="1" parent="1">
          <mxGeometry x="40" y="780" width="160" height="210" as="geometry" />
        </mxCell>
        <mxCell id="eGBgpDXBILm3z7dDLEID-26" value="stream" style="rounded=0;whiteSpace=wrap;html=1;align=left;spacingLeft=10;" vertex="1" parent="eGBgpDXBILm3z7dDLEID-25">
          <mxGeometry x="10" y="160" width="120" height="20" as="geometry" />
        </mxCell>
        <mxCell id="eGBgpDXBILm3z7dDLEID-27" value="art" style="rounded=0;whiteSpace=wrap;html=1;align=left;spacingLeft=10;" vertex="1" parent="eGBgpDXBILm3z7dDLEID-25">
          <mxGeometry x="10" y="40" width="120" height="20" as="geometry" />
        </mxCell>
        <mxCell id="eGBgpDXBILm3z7dDLEID-28" value="art-boogaloo" style="rounded=0;whiteSpace=wrap;html=1;align=left;spacingLeft=10;" vertex="1" parent="eGBgpDXBILm3z7dDLEID-25">
          <mxGeometry x="10" y="70" width="120" height="20" as="geometry" />
        </mxCell>
        <mxCell id="eGBgpDXBILm3z7dDLEID-29" value="worldbuilding" style="rounded=0;whiteSpace=wrap;html=1;align=left;spacingLeft=10;" vertex="1" parent="eGBgpDXBILm3z7dDLEID-25">
          <mxGeometry x="10" y="100" width="120" height="20" as="geometry" />
        </mxCell>
        <mxCell id="eGBgpDXBILm3z7dDLEID-30" value="stream-chat" style="rounded=0;whiteSpace=wrap;html=1;align=left;spacingLeft=10;" vertex="1" parent="eGBgpDXBILm3z7dDLEID-25">
          <mxGeometry x="10" y="130" width="120" height="20" as="geometry" />
        </mxCell>
        <mxCell id="eGBgpDXBILm3z7dDLEID-31" value="Adult" style="swimlane;whiteSpace=wrap;html=1;align=left;spacingLeft=10;" vertex="1" parent="1">
          <mxGeometry x="40" y="1000" width="160" height="150" as="geometry" />
        </mxCell>
        <mxCell id="eGBgpDXBILm3z7dDLEID-33" value="chat-adult" style="rounded=0;whiteSpace=wrap;html=1;align=left;spacingLeft=10;" vertex="1" parent="eGBgpDXBILm3z7dDLEID-31">
          <mxGeometry x="10" y="40" width="120" height="20" as="geometry" />
        </mxCell>
        <mxCell id="eGBgpDXBILm3z7dDLEID-34" value="adult-art" style="rounded=0;whiteSpace=wrap;html=1;align=left;spacingLeft=10;" vertex="1" parent="eGBgpDXBILm3z7dDLEID-31">
          <mxGeometry x="10" y="70" width="120" height="20" as="geometry" />
        </mxCell>
        <mxCell id="eGBgpDXBILm3z7dDLEID-35" value="adult-worldbuilding" style="rounded=0;whiteSpace=wrap;html=1;align=left;spacingLeft=10;" vertex="1" parent="eGBgpDXBILm3z7dDLEID-31">
          <mxGeometry x="10" y="100" width="120" height="20" as="geometry" />
        </mxCell>
        <mxCell id="eGBgpDXBILm3z7dDLEID-37" value="&lt;h1&gt;CURRENT&lt;/h1&gt;" style="rounded=0;whiteSpace=wrap;html=1;align=left;spacingLeft=10;" vertex="1" parent="1">
          <mxGeometry x="30" y="20" width="180" height="60" as="geometry" />
        </mxCell>
      </root>
    </mxGraphModel>
  </diagram>
</mxfile>
